
<global>
amp_veltrack=0
ampeg_attack=0.01
ampeg_release=0.85
</global>

<group>
group_label=RR1_0-64
seq_length=4
xfin_hicc1=64
xfout_hicc1=127
xfout_locc1=64

<region>
hivel=127
key=A#3
lovel=1
offset=636
sample=Altos_Ahh_staccato_PP_A#3_RR1.opus
</region>

<region>
hivel=127
key=A#4
lovel=1
sample=Altos_Ahh_staccato_PP_A#4_RR1.opus
</region>

<region>
hivel=127
key=A3
lovel=1
sample=Altos_Ahh_staccato_PP_A3_RR1.opus
</region>

<region>
hivel=127
key=A4
lovel=1
sample=Altos_Ahh_staccato_PP_A4_RR1.opus
</region>

<region>
hivel=127
key=B3
lovel=1
sample=Altos_Ahh_staccato_PP_B3_RR1.opus
</region>

<region>
hivel=127
key=B4
lovel=1
offset=641
sample=Altos_Ahh_staccato_PP_B4_RR1.opus
</region>

<region>
hivel=127
key=C#4
lovel=1
sample=Altos_Ahh_staccato_PP_C#4_RR1.opus
</region>

<region>
hivel=127
key=C#5
lovel=1
sample=Altos_Ahh_staccato_PP_C#5_RR1.opus
</region>

<region>
hikey=C4
hivel=127
lokey=C4
lovel=1
sample=Altos_Ahh_staccato_PP_C4_RR1.opus
</region>

<region>
hivel=127
key=C5
lovel=1
offset=819
sample=Altos_Ahh_staccato_PP_C5_RR1.opus
</region>

<region>
hivel=127
key=D#4
lovel=1
offset=645
sample=Altos_Ahh_staccato_PP_D#4_RR1.opus
</region>

<region>
hivel=127
key=D#5
lovel=1
offset=798
sample=Altos_Ahh_staccato_PP_D#5_RR1.opus
</region>

<region>
hivel=127
key=D4
lovel=1
offset=541
sample=Altos_Ahh_staccato_PP_D4_RR1.opus
</region>

<region>
hivel=127
key=D5
lovel=1
sample=Altos_Ahh_staccato_PP_D5_RR1.opus
</region>

<region>
hivel=127
key=E4
lovel=1
sample=Altos_Ahh_staccato_PP_E4_RR1.opus
</region>

<region>
hivel=127
key=E5
lovel=1
sample=Altos_Ahh_staccato_PP_E5_RR1.opus
</region>

<region>
hivel=127
key=F#4
lovel=1
offset=1277
sample=Altos_Ahh_staccato_PP_F#4_RR1.opus
</region>

<region>
hivel=127
key=F4
lovel=1
sample=Altos_Ahh_staccato_PP_F4_RR1.opus
</region>

<region>
hikey=A5
hivel=127
lokey=F5
lovel=1
offset=3271
pitch_keycenter=F5
sample=Altos_Ahh_staccato_PP_F5_RR1.opus
</region>

<region>
hivel=127
key=G#3
lovel=1
sample=Altos_Ahh_staccato_PP_G#3_RR1.opus
</region>

<region>
hivel=127
key=G#4
lovel=1
offset=1522
sample=Altos_Ahh_staccato_PP_G#4_RR1.opus
</region>

<region>
hikey=G3
hivel=127
lokey=D3
lovel=1
pitch_keycenter=G3
sample=Altos_Ahh_staccato_PP_G3_RR1.opus
</region>

<region>
hivel=127
key=G4
lovel=1
sample=Altos_Ahh_staccato_PP_G4_RR1.opus
</region>
</group>

<group>
group_label=RR2_0-64
seq_length=4
seq_position=2
xfin_hicc1=64
xfout_hicc1=127
xfout_locc1=64

<region>
hivel=127
key=A#3
lovel=1
sample=Altos_Ahh_staccato_PP_A#3_RR2.opus
</region>

<region>
hivel=127
key=A#4
lovel=1
sample=Altos_Ahh_staccato_PP_A#4_RR2.opus
</region>

<region>
hivel=127
key=A3
lovel=1
sample=Altos_Ahh_staccato_PP_A3_RR2.opus
</region>

<region>
hivel=127
key=A4
lovel=1
sample=Altos_Ahh_staccato_PP_A4_RR2.opus
</region>

<region>
hivel=127
key=B3
lovel=1
sample=Altos_Ahh_staccato_PP_B3_RR2.opus
</region>

<region>
hivel=127
key=B4
lovel=1
sample=Altos_Ahh_staccato_PP_B4_RR2.opus
</region>

<region>
hivel=127
key=C#4
lovel=1
sample=Altos_Ahh_staccato_PP_C#4_RR2.opus
</region>

<region>
hivel=127
key=C#5
lovel=1
offset=590
sample=Altos_Ahh_staccato_PP_C#5_RR2.opus
</region>

<region>
hikey=C4
hivel=127
lokey=C4
lovel=1
sample=Altos_Ahh_staccato_PP_C4_RR2.opus
</region>

<region>
hivel=127
key=C5
lovel=1
offset=72
sample=Altos_Ahh_staccato_PP_C5_RR2.opus
</region>

<region>
hivel=127
key=D#4
lovel=1
sample=Altos_Ahh_staccato_PP_D#4_RR2.opus
</region>

<region>
hivel=127
key=D#5
lovel=1
offset=924
sample=Altos_Ahh_staccato_PP_D#5_RR2.opus
</region>

<region>
hivel=127
key=D4
lovel=1
sample=Altos_Ahh_staccato_PP_D4_RR2.opus
</region>

<region>
hivel=127
key=D5
lovel=1
offset=2374
sample=Altos_Ahh_staccato_PP_D5_RR2.opus
</region>

<region>
hivel=127
key=E4
lovel=1
sample=Altos_Ahh_staccato_PP_E4_RR2.opus
</region>

<region>
hivel=127
key=E5
lovel=1
offset=340
sample=Altos_Ahh_staccato_PP_E5_RR2.opus
</region>

<region>
hivel=127
key=F#4
lovel=1
sample=Altos_Ahh_staccato_PP_F#4_RR2.opus
</region>

<region>
hivel=127
key=F4
lovel=1
sample=Altos_Ahh_staccato_PP_F4_RR2.opus
</region>

<region>
hikey=A5
hivel=127
lokey=F5
lovel=1
offset=2393
pitch_keycenter=F5
sample=Altos_Ahh_staccato_PP_F5_RR2.opus
</region>

<region>
hivel=127
key=G#3
lovel=1
sample=Altos_Ahh_staccato_PP_G#3_RR2.opus
</region>

<region>
hivel=127
key=G#4
lovel=1
sample=Altos_Ahh_staccato_PP_G#4_RR2.opus
</region>

<region>
hikey=G3
hivel=127
lokey=D3
lovel=1
pitch_keycenter=G3
sample=Altos_Ahh_staccato_PP_G3_RR2.opus
</region>

<region>
hivel=127
key=G4
lovel=1
sample=Altos_Ahh_staccato_PP_G4_RR2.opus
</region>
</group>

<group>
group_label=RR3_0-64
seq_length=4
seq_position=3
xfin_hicc1=64
xfout_hicc1=127
xfout_locc1=64

<region>
hivel=127
key=A#3
lovel=1
sample=Altos_Ahh_staccato_PP_A#3_RR3.opus
</region>

<region>
hivel=127
key=A#4
lovel=1
offset=693
sample=Altos_Ahh_staccato_PP_A#4_RR3.opus
</region>

<region>
hivel=127
key=A3
lovel=1
sample=Altos_Ahh_staccato_PP_A3_RR3.opus
</region>

<region>
hivel=127
key=A4
lovel=1
sample=Altos_Ahh_staccato_PP_A4_RR3.opus
</region>

<region>
hivel=127
key=B3
lovel=1
offset=298
sample=Altos_Ahh_staccato_PP_B3_RR3.opus
</region>

<region>
hivel=127
key=B4
lovel=1
sample=Altos_Ahh_staccato_PP_B4_RR3.opus
</region>

<region>
hivel=127
key=C#4
lovel=1
sample=Altos_Ahh_staccato_PP_C#4_RR3.opus
</region>

<region>
hivel=127
key=C#5
lovel=1
offset=747
sample=Altos_Ahh_staccato_PP_C#5_RR3.opus
</region>

<region>
hikey=C4
hivel=127
lokey=C4
lovel=1
sample=Altos_Ahh_staccato_PP_C4_RR3.opus
</region>

<region>
hivel=127
key=C5
lovel=1
offset=127
sample=Altos_Ahh_staccato_PP_C5_RR3.opus
</region>

<region>
hivel=127
key=D#4
lovel=1
sample=Altos_Ahh_staccato_PP_D#4_RR3.opus
</region>

<region>
hivel=127
key=D#5
lovel=1
offset=2807
sample=Altos_Ahh_staccato_PP_D#5_RR3.opus
</region>

<region>
hivel=127
key=D4
lovel=1
sample=Altos_Ahh_staccato_PP_D4_RR3.opus
</region>

<region>
hivel=127
key=D5
lovel=1
sample=Altos_Ahh_staccato_PP_D5_RR3.opus
</region>

<region>
hivel=127
key=E4
lovel=1
offset=72
sample=Altos_Ahh_staccato_PP_E4_RR3.opus
</region>

<region>
hivel=127
key=E5
lovel=1
offset=2741
sample=Altos_Ahh_staccato_PP_E5_RR3.opus
</region>

<region>
hivel=127
key=F#4
lovel=1
sample=Altos_Ahh_staccato_PP_F#4_RR3.opus
</region>

<region>
hivel=127
key=F4
lovel=1
sample=Altos_Ahh_staccato_PP_F4_RR3.opus
</region>

<region>
hikey=A5
hivel=127
lokey=F5
lovel=1
offset=1870
pitch_keycenter=F5
sample=Altos_Ahh_staccato_PP_F5_RR3.opus
</region>

<region>
hivel=127
key=G#3
lovel=1
sample=Altos_Ahh_staccato_PP_G#3_RR3.opus
</region>

<region>
hivel=127
key=G#4
lovel=1
sample=Altos_Ahh_staccato_PP_G#4_RR3.opus
</region>

<region>
hikey=G3
hivel=127
lokey=D3
lovel=1
offset=120
pitch_keycenter=G3
sample=Altos_Ahh_staccato_PP_G3_RR3.opus
</region>

<region>
hivel=127
key=G4
lovel=1
sample=Altos_Ahh_staccato_PP_G4_RR3.opus
</region>
</group>

<group>
group_label=RR4_0-64
seq_length=4
seq_position=4
xfin_hicc1=64
xfout_hicc1=127
xfout_locc1=64

<region>
hivel=127
key=A#3
lovel=1
offset=357
sample=Altos_Ahh_staccato_PP_A#3_RR4.opus
</region>

<region>
hivel=127
key=A#4
lovel=1
sample=Altos_Ahh_staccato_PP_A#4_RR4.opus
</region>

<region>
hivel=127
key=A3
lovel=1
sample=Altos_Ahh_staccato_PP_A3_RR4.opus
</region>

<region>
hivel=127
key=A4
lovel=1
sample=Altos_Ahh_staccato_PP_A4_RR4.opus
</region>

<region>
hivel=127
key=B3
lovel=1
sample=Altos_Ahh_staccato_PP_B3_RR4.opus
</region>

<region>
hivel=127
key=B4
lovel=1
sample=Altos_Ahh_staccato_PP_B4_RR4.opus
</region>

<region>
hivel=127
key=C#4
lovel=1
sample=Altos_Ahh_staccato_PP_C#4_RR4.opus
</region>

<region>
hivel=127
key=C#5
lovel=1
offset=1299
sample=Altos_Ahh_staccato_PP_C#5_RR4.opus
</region>

<region>
hikey=C4
hivel=127
lokey=C4
lovel=1
sample=Altos_Ahh_staccato_PP_C4_RR4.opus
</region>

<region>
hivel=127
key=C5
lovel=1
offset=921
sample=Altos_Ahh_staccato_PP_C5_RR4.opus
</region>

<region>
hivel=127
key=D#4
lovel=1
sample=Altos_Ahh_staccato_PP_D#4_RR4.opus
</region>

<region>
hivel=127
key=D#5
lovel=1
offset=2614
sample=Altos_Ahh_staccato_PP_D#5_RR4.opus
</region>

<region>
hivel=127
key=D4
lovel=1
sample=Altos_Ahh_staccato_PP_D4_RR4.opus
</region>

<region>
hivel=127
key=D5
lovel=1
offset=5058
sample=Altos_Ahh_staccato_PP_D5_RR4.opus
</region>

<region>
hivel=127
key=E4
lovel=1
sample=Altos_Ahh_staccato_PP_E4_RR4.opus
</region>

<region>
hivel=127
key=E5
lovel=1
offset=4260
sample=Altos_Ahh_staccato_PP_E5_RR4.opus
</region>

<region>
hivel=127
key=F#4
lovel=1
sample=Altos_Ahh_staccato_PP_F#4_RR4.opus
</region>

<region>
hivel=127
key=F4
lovel=1
sample=Altos_Ahh_staccato_PP_F4_RR4.opus
</region>

<region>
hikey=A5
hivel=127
lokey=F5
lovel=1
offset=4220
pitch_keycenter=F5
sample=Altos_Ahh_staccato_PP_F5_RR4.opus
</region>

<region>
hivel=127
key=G#3
lovel=1
sample=Altos_Ahh_staccato_PP_G#3_RR4.opus
</region>

<region>
hivel=127
key=G#4
lovel=1
sample=Altos_Ahh_staccato_PP_G#4_RR4.opus
</region>

<region>
hikey=G3
hivel=127
lokey=D3
lovel=1
pitch_keycenter=G3
sample=Altos_Ahh_staccato_PP_G3_RR4.opus
</region>

<region>
hivel=127
key=G4
lovel=1
sample=Altos_Ahh_staccato_PP_G4_RR4.opus
</region>
</group>

<group>
group_label=RR1_65-127
seq_length=4
xfin_hicc1=127
xfin_locc1=65
xfout_hicc1=127
xfout_locc1=127

<region>
hivel=127
key=A#3
lovel=1
offset=2609
sample=Altos_Ahh_staccato_FF_A#3_RR1.opus
</region>

<region>
hivel=127
key=A#4
lovel=1
offset=4527
sample=Altos_Ahh_staccato_FF_A#4_RR1.opus
</region>

<region>
hivel=127
key=A3
lovel=1
offset=1338
sample=Altos_Ahh_staccato_FF_A3_RR1.opus
</region>

<region>
hivel=127
key=A4
lovel=1
offset=506
sample=Altos_Ahh_staccato_FF_A4_RR1.opus
</region>

<region>
hivel=127
key=B3
lovel=1
offset=1817
sample=Altos_Ahh_staccato_FF_B3_RR1.opus
</region>

<region>
hivel=127
key=B4
lovel=1
offset=1103
sample=Altos_Ahh_staccato_FF_B4_RR1.opus
</region>

<region>
hivel=127
key=C#4
lovel=1
offset=1105
sample=Altos_Ahh_staccato_FF_C#4_RR1.opus
</region>

<region>
hivel=127
key=C#5
lovel=1
offset=260
sample=Altos_Ahh_staccato_FF_C#5_RR1.opus
</region>

<region>
hikey=C4
hivel=127
lokey=C4
lovel=1
offset=1250
sample=Altos_Ahh_staccato_FF_C4_RR1.opus
</region>

<region>
hivel=127
key=C5
lovel=1
offset=352
sample=Altos_Ahh_staccato_FF_C5_RR1.opus
</region>

<region>
hivel=127
key=D#4
lovel=1
sample=Altos_Ahh_staccato_FF_D#4_RR1.opus
</region>

<region>
hivel=127
key=D#5
lovel=1
offset=1090
sample=Altos_Ahh_staccato_FF_D#5_RR1.opus
</region>

<region>
hivel=127
key=D4
lovel=1
offset=2364
sample=Altos_Ahh_staccato_FF_D4_RR1.opus
</region>

<region>
hivel=127
key=D5
lovel=1
offset=1915
sample=Altos_Ahh_staccato_FF_D5_RR1.opus
</region>

<region>
hivel=127
key=E4
lovel=1
offset=2418
sample=Altos_Ahh_staccato_FF_E4_RR1.opus
</region>

<region>
hivel=127
key=E5
lovel=1
offset=395
sample=Altos_Ahh_staccato_FF_E5_RR1.opus
</region>

<region>
hivel=127
key=F#4
lovel=1
offset=1529
sample=Altos_Ahh_staccato_FF_F#4_RR1.opus
</region>

<region>
hivel=127
key=F4
lovel=1
offset=1278
sample=Altos_Ahh_staccato_FF_F4_RR1.opus
</region>

<region>
hikey=A5
hivel=127
lokey=F5
lovel=1
offset=1250
pitch_keycenter=F5
sample=Altos_Ahh_staccato_FF_F5_RR1.opus
</region>

<region>
hivel=127
key=G#3
lovel=1
offset=683
sample=Altos_Ahh_staccato_FF_G#3_RR1.opus
</region>

<region>
hivel=127
key=G#4
lovel=1
offset=2162
sample=Altos_Ahh_staccato_FF_G#4_RR1.opus
</region>

<region>
hikey=G3
hivel=127
lokey=D3
lovel=1
offset=1959
pitch_keycenter=G3
sample=Altos_Ahh_staccato_FF_G3_RR1.opus
</region>

<region>
hivel=127
key=G4
lovel=1
offset=196
sample=Altos_Ahh_staccato_FF_G4_RR1.opus
</region>
</group>

<group>
group_label=RR2_65-127
seq_length=4
seq_position=2
xfin_hicc1=127
xfin_locc1=65
xfout_hicc1=127
xfout_locc1=127

<region>
hivel=127
key=A#3
lovel=1
sample=Altos_Ahh_staccato_FF_A#3_RR2.opus
</region>

<region>
hivel=127
key=A#4
lovel=1
offset=4370
sample=Altos_Ahh_staccato_FF_A#4_RR2.opus
</region>

<region>
hivel=127
key=A3
lovel=1
offset=393
sample=Altos_Ahh_staccato_FF_A3_RR2.opus
</region>

<region>
hivel=127
key=A4
lovel=1
offset=457
sample=Altos_Ahh_staccato_FF_A4_RR2.opus
</region>

<region>
hivel=127
key=B3
lovel=1
offset=1270
sample=Altos_Ahh_staccato_FF_B3_RR2.opus
</region>

<region>
hivel=127
key=B4
lovel=1
offset=2356
sample=Altos_Ahh_staccato_FF_B4_RR2.opus
</region>

<region>
hivel=127
key=C#4
lovel=1
offset=1348
sample=Altos_Ahh_staccato_FF_C#4_RR2.opus
</region>

<region>
hivel=127
key=C#5
lovel=1
offset=1257
sample=Altos_Ahh_staccato_FF_C#5_RR2.opus
</region>

<region>
hikey=C4
hivel=127
lokey=C4
lovel=1
offset=786
sample=Altos_Ahh_staccato_FF_C4_RR2.opus
</region>

<region>
hivel=127
key=C5
lovel=1
offset=1806
sample=Altos_Ahh_staccato_FF_C5_RR2.opus
</region>

<region>
hivel=127
key=D#4
lovel=1
sample=Altos_Ahh_staccato_FF_D#4_RR2.opus
</region>

<region>
hivel=127
key=D#5
lovel=1
offset=2033
sample=Altos_Ahh_staccato_FF_D#5_RR2.opus
</region>

<region>
hivel=127
key=D4
lovel=1
sample=Altos_Ahh_staccato_FF_D4_RR2.opus
</region>

<region>
hivel=127
key=D5
lovel=1
offset=2573
sample=Altos_Ahh_staccato_FF_D5_RR2.opus
</region>

<region>
hivel=127
key=E4
lovel=1
offset=2940
sample=Altos_Ahh_staccato_FF_E4_RR2.opus
</region>

<region>
hivel=127
key=E5
lovel=1
offset=4033
sample=Altos_Ahh_staccato_FF_E5_RR2.opus
</region>

<region>
hivel=127
key=F#4
lovel=1
offset=2570
sample=Altos_Ahh_staccato_FF_F#4_RR2.opus
</region>

<region>
hivel=127
key=F4
lovel=1
offset=2221
sample=Altos_Ahh_staccato_FF_F4_RR2.opus
</region>

<region>
hikey=A5
hivel=127
lokey=F5
lovel=1
offset=1851
pitch_keycenter=F5
sample=Altos_Ahh_staccato_FF_F5_RR2.opus
</region>

<region>
hivel=127
key=G#3
lovel=1
sample=Altos_Ahh_staccato_FF_G#3_RR2.opus
</region>

<region>
hivel=127
key=G#4
lovel=1
offset=3033
sample=Altos_Ahh_staccato_FF_G#4_RR2.opus
</region>

<region>
hikey=G3
hivel=127
lokey=D3
lovel=1
offset=1810
pitch_keycenter=G3
sample=Altos_Ahh_staccato_FF_G3_RR2.opus
</region>

<region>
hivel=127
key=G4
lovel=1
offset=1258
sample=Altos_Ahh_staccato_FF_G4_RR2.opus
</region>
</group>

<group>
group_label=RR3_65-127
seq_length=4
seq_position=3
xfin_hicc1=127
xfin_locc1=65
xfout_hicc1=127
xfout_locc1=127

<region>
hivel=127
key=A#3
lovel=1
sample=Altos_Ahh_staccato_FF_A#3_RR3.opus
</region>

<region>
hivel=127
key=A#4
lovel=1
offset=4745
sample=Altos_Ahh_staccato_FF_A#4_RR3.opus
</region>

<region>
hivel=127
key=A3
lovel=1
sample=Altos_Ahh_staccato_FF_A3_RR3.opus
</region>

<region>
hivel=127
key=A4
lovel=1
offset=1799
sample=Altos_Ahh_staccato_FF_A4_RR3.opus
</region>

<region>
hivel=127
key=B3
lovel=1
offset=1585
sample=Altos_Ahh_staccato_FF_B3_RR3.opus
</region>

<region>
hivel=127
key=B4
lovel=1
offset=2963
sample=Altos_Ahh_staccato_FF_B4_RR3.opus
</region>

<region>
hivel=127
key=C#4
lovel=1
offset=1310
sample=Altos_Ahh_staccato_FF_C#4_RR3.opus
</region>

<region>
hivel=127
key=C#5
lovel=1
offset=754
sample=Altos_Ahh_staccato_FF_C#5_RR3.opus
</region>

<region>
hikey=C4
hivel=127
lokey=C4
lovel=1
offset=970
sample=Altos_Ahh_staccato_FF_C4_RR3.opus
</region>

<region>
hivel=127
key=C5
lovel=1
offset=1865
sample=Altos_Ahh_staccato_FF_C5_RR3.opus
</region>

<region>
hivel=127
key=D#4
lovel=1
offset=130
sample=Altos_Ahh_staccato_FF_D#4_RR3.opus
</region>

<region>
hivel=127
key=D#5
lovel=1
offset=1421
sample=Altos_Ahh_staccato_FF_D#5_RR3.opus
</region>

<region>
hivel=127
key=D4
lovel=1
offset=1026
sample=Altos_Ahh_staccato_FF_D4_RR3.opus
</region>

<region>
hivel=127
key=D5
lovel=1
offset=2355
sample=Altos_Ahh_staccato_FF_D5_RR3.opus
</region>

<region>
hivel=127
key=E4
lovel=1
offset=1419
sample=Altos_Ahh_staccato_FF_E4_RR3.opus
</region>

<region>
hivel=127
key=E5
lovel=1
offset=3681
sample=Altos_Ahh_staccato_FF_E5_RR3.opus
</region>

<region>
hivel=127
key=F#4
lovel=1
offset=2338
sample=Altos_Ahh_staccato_FF_F#4_RR3.opus
</region>

<region>
hivel=127
key=F4
lovel=1
offset=3533
sample=Altos_Ahh_staccato_FF_F4_RR3.opus
</region>

<region>
hikey=A5
hivel=127
lokey=F5
lovel=1
offset=890
pitch_keycenter=F5
sample=Altos_Ahh_staccato_FF_F5_RR3.opus
</region>

<region>
hivel=127
key=G#3
lovel=1
sample=Altos_Ahh_staccato_FF_G#3_RR3.opus
</region>

<region>
hivel=127
key=G#4
lovel=1
offset=2182
sample=Altos_Ahh_staccato_FF_G#4_RR3.opus
</region>

<region>
hikey=G3
hivel=127
lokey=D3
lovel=1
offset=1821
pitch_keycenter=G3
sample=Altos_Ahh_staccato_FF_G3_RR3.opus
</region>

<region>
hivel=127
key=G4
lovel=1
offset=61
sample=Altos_Ahh_staccato_FF_G4_RR3.opus
</region>
</group>

<group>
group_label=RR4_65-127
seq_length=4
seq_position=4
xfin_hicc1=127
xfin_locc1=65
xfout_hicc1=127
xfout_locc1=127

<region>
hivel=127
key=A#3
lovel=1
sample=Altos_Ahh_staccato_FF_A#3_RR4.opus
</region>

<region>
hivel=127
key=A#4
lovel=1
offset=3408
sample=Altos_Ahh_staccato_FF_A#4_RR4.opus
</region>

<region>
hivel=127
key=A3
lovel=1
offset=1865
sample=Altos_Ahh_staccato_FF_A3_RR4.opus
</region>

<region>
hivel=127
key=A4
lovel=1
offset=1412
sample=Altos_Ahh_staccato_FF_A4_RR4.opus
</region>

<region>
hivel=127
key=B3
lovel=1
offset=3325
sample=Altos_Ahh_staccato_FF_B3_RR4.opus
</region>

<region>
hivel=127
key=B4
lovel=1
offset=4164
sample=Altos_Ahh_staccato_FF_B4_RR4.opus
</region>

<region>
hivel=127
key=C#4
lovel=1
sample=Altos_Ahh_staccato_FF_C#4_RR4.opus
</region>

<region>
hivel=127
key=C#5
lovel=1
offset=837
sample=Altos_Ahh_staccato_FF_C#5_RR4.opus
</region>

<region>
hikey=C4
hivel=127
lokey=C4
lovel=1
offset=1940
sample=Altos_Ahh_staccato_FF_C4_RR4.opus
</region>

<region>
hivel=127
key=C5
lovel=1
offset=3328
sample=Altos_Ahh_staccato_FF_C5_RR4.opus
</region>

<region>
hivel=127
key=D#4
lovel=1
offset=1194
sample=Altos_Ahh_staccato_FF_D#4_RR4.opus
</region>

<region>
hivel=127
key=D#5
lovel=1
offset=3364
sample=Altos_Ahh_staccato_FF_D#5_RR4.opus
</region>

<region>
hivel=127
key=D4
lovel=1
offset=560
sample=Altos_Ahh_staccato_FF_D4_RR4.opus
</region>

<region>
hivel=127
key=D5
lovel=1
offset=2970
sample=Altos_Ahh_staccato_FF_D5_RR4.opus
</region>

<region>
hivel=127
key=E4
lovel=1
offset=2567
sample=Altos_Ahh_staccato_FF_E4_RR4.opus
</region>

<region>
hivel=127
key=E5
lovel=1
offset=537
sample=Altos_Ahh_staccato_FF_E5_RR4.opus
</region>

<region>
hivel=127
key=F#4
lovel=1
offset=2396
sample=Altos_Ahh_staccato_FF_F#4_RR4.opus
</region>

<region>
hivel=127
key=F4
lovel=1
offset=4760
sample=Altos_Ahh_staccato_FF_F4_RR4.opus
</region>

<region>
hikey=A5
hivel=127
lokey=F5
lovel=1
offset=2420
pitch_keycenter=F5
sample=Altos_Ahh_staccato_FF_F5_RR4.opus
</region>

<region>
hivel=127
key=G#3
lovel=1
offset=1343
sample=Altos_Ahh_staccato_FF_G#3_RR4.opus
</region>

<region>
hivel=127
key=G#4
lovel=1
offset=1407
sample=Altos_Ahh_staccato_FF_G#4_RR4.opus
</region>

<region>
hikey=G3
hivel=127
lokey=D3
lovel=1
offset=2196
pitch_keycenter=G3
sample=Altos_Ahh_staccato_FF_G3_RR4.opus
</region>

<region>
hivel=127
key=G4
lovel=1
offset=2076
sample=Altos_Ahh_staccato_FF_G4_RR4.opus
</region>
</group>